<svg width="23" height="29" viewBox="0 0 23 29" fill="none" xmlns="http://www.w3.org/2000/svg">
<path d="M18.2404 28.0943H5.02022C3.92301 28.0924 2.87131 27.6797 2.09546 26.9465C1.31961 26.2134 0.88286 25.2196 0.880859 24.1828V4.91147C0.88286 3.87466 1.31961 2.88086 2.09546 2.14773C2.87131 1.4146 3.92301 1.00189 5.02022 1H18.2404C19.3383 1 20.3911 1.4121 21.1674 2.14564C21.9437 2.87919 22.3798 3.87408 22.3798 4.91147V24.2186C22.3679 25.2491 21.9267 26.2338 21.1519 26.9592C20.3772 27.6847 19.3311 28.0924 18.2404 28.0943V28.0943ZM5.02022 2.17273C4.25215 2.17461 3.51612 2.46377 2.97301 2.97697C2.42991 3.49018 2.12391 4.18569 2.12191 4.91147V24.2186C2.12391 24.9443 2.42991 25.6398 2.97301 26.1531C3.51612 26.6663 4.25215 26.9554 5.02022 26.9573H18.2404C19.0085 26.9554 19.7445 26.6663 20.2876 26.1531C20.8307 25.6398 21.1367 24.9443 21.1387 24.2186V4.91147C21.1367 4.18569 20.8307 3.49018 20.2876 2.97697C19.7445 2.46377 19.0085 2.17461 18.2404 2.17273H5.02022Z" fill="#1062AA" stroke="#1062AA"/>
<path d="M14.9034 23.8324H8.46358C7.36575 23.8324 6.31289 23.4203 5.53661 22.6867C4.76033 21.9532 4.32422 20.9583 4.32422 19.9209V9.19475C4.32622 8.15861 4.76322 7.16555 5.53928 6.43355C6.31534 5.70155 7.36706 5.29043 8.46358 5.29043H14.9034C16.0006 5.29232 17.0523 5.70503 17.8282 6.43817C18.604 7.1713 19.0408 8.1651 19.0428 9.20191V19.9281C19.0388 20.9636 18.6011 21.9556 17.8255 22.6872C17.0499 23.4188 15.9993 23.8305 14.9034 23.8324V23.8324ZM8.46358 6.43456C7.69551 6.43644 6.95948 6.7256 6.41637 7.2388C5.87326 7.75201 5.56727 8.44752 5.56527 9.1733V19.8995C5.56727 20.6252 5.87326 21.3208 6.41637 21.834C6.95948 22.3472 7.69551 22.6363 8.46358 22.6382H14.9034C15.6715 22.6363 16.4075 22.3472 16.9506 21.834C17.4937 21.3208 17.7997 20.6252 17.8017 19.8995V9.1733C17.7997 8.44752 17.4937 7.75201 16.9506 7.2388C16.4075 6.7256 15.6715 6.43644 14.9034 6.43456H8.46358Z" fill="#1062AA" stroke="#1062AA"/>
<path d="M13.7022 4.28211H8.85909C8.72519 4.25013 8.60641 4.17685 8.52156 4.07388C8.4367 3.97091 8.39062 3.84414 8.39062 3.71363C8.39062 3.58312 8.4367 3.45634 8.52156 3.35337C8.60641 3.2504 8.72519 3.17712 8.85909 3.14514H13.7022C13.8668 3.14514 14.0246 3.20692 14.141 3.31688C14.2574 3.42685 14.3227 3.57599 14.3227 3.7315C14.3227 3.88702 14.2574 4.03616 14.141 4.14613C14.0246 4.25609 13.8668 4.31787 13.7022 4.31787V4.28211Z" fill="#1062AA"/>
<path d="M11.6786 26.1493C12.0965 26.1493 12.4354 25.8292 12.4354 25.4342C12.4354 25.0393 12.0965 24.7192 11.6786 24.7192C11.2607 24.7192 10.9219 25.0393 10.9219 25.4342C10.9219 25.8292 11.2607 26.1493 11.6786 26.1493Z" fill="#1062AA"/>
</svg>
