<svg width="20" height="29" viewBox="0 0 20 29" fill="none" xmlns="http://www.w3.org/2000/svg">
<path d="M9.68081 26.5862C7.44649 26.5862 5.59435 25.9339 4.1244 24.6294C2.53685 23.2359 1.77248 21.3385 1.77248 18.8777C1.77248 17.8104 2.00767 16.6245 2.50746 15.32C2.68385 14.8159 2.91904 14.2526 3.21303 13.6004L3.94801 12.118C4.00681 12.0587 4.0362 11.9697 4.0362 11.9104L8.59305 2.4231H14.5904L9.88661 11.7918C10.0924 11.7326 10.3276 11.6733 10.5922 11.6436C10.7098 11.614 10.8274 11.614 10.9156 11.614H11.2096C12.7971 11.614 14.2377 12.2366 15.4724 13.4521C16.8542 14.8159 17.5303 16.6245 17.5303 18.8184C17.5303 21.2495 16.7366 23.1767 15.149 24.5701C13.7673 25.9339 11.9151 26.5862 9.68081 26.5862ZM9.68081 16.1501C8.06387 16.1501 7.24069 17.0692 7.24069 18.8777C7.24069 20.6862 8.06387 21.6053 9.68081 21.6053C11.2978 21.6053 12.1209 20.6862 12.1209 18.8777C12.0915 17.0692 11.2978 16.1501 9.68081 16.1501ZM9.68081 28.0093C12.2679 28.0093 14.4435 27.2384 16.1486 25.6967C18.0301 24.0364 19.0003 21.7536 19.0003 18.8777C19.0003 16.2687 18.1771 14.1044 16.5014 12.4737C15.2372 11.2285 13.8261 10.517 12.2679 10.2798L15.884 3.07536C16.1192 2.63064 16.0898 2.09697 15.8252 1.6819C15.5606 1.26683 15.1196 1 14.6198 1H8.59305C8.06387 1 7.56409 1.32613 7.32889 1.80049L2.77205 11.2878C2.74265 11.3175 2.74265 11.3471 2.74265 11.3768C2.71325 11.4064 2.71325 11.4361 2.68385 11.4657L1.94887 12.9481C1.94887 12.9778 1.91948 12.9778 1.91948 13.0074C1.62549 13.6893 1.36089 14.2823 1.1845 14.8159C0.655318 16.2687 0.361328 17.6325 0.361328 18.8777C0.361328 21.7239 1.3021 24.0364 3.18363 25.6967C4.88877 27.2384 7.0643 28.0093 9.68081 28.0093ZM9.68081 17.6028C10.2688 17.6028 10.7098 17.6028 10.7098 18.9074C10.7098 20.2119 10.2688 20.2119 9.68081 20.2119C9.12223 20.2119 8.65185 20.2119 8.65185 18.9074C8.65185 17.6028 9.06343 17.6028 9.68081 17.6028Z" fill="#1062AA" stroke="#1062AA" stroke-width="0.5"/>
</svg>
