<svg width="127" height="41" viewBox="0 0 127 41" fill="none" xmlns="http://www.w3.org/2000/svg">
<path d="M115 0.5C121.351 0.5 126.5 5.64873 126.5 12L126.5 22.44C126.5 28.7913 121.351 33.94 115 33.94L75.2645 33.94L74.7333 33.94C71.1832 33.94 67.8006 35.4495 65.4296 38.0918L63.864 39.8366C63.6654 40.058 63.3184 40.058 63.1197 39.8366L61.5542 38.0918C59.1832 35.4495 55.8006 33.94 52.2505 33.94L51.7193 33.94L12 33.94C5.64872 33.94 0.499999 28.7912 0.499999 22.44L0.499999 12C0.5 5.64872 5.64873 0.499999 12 0.499999L115 0.5Z" stroke="#35C8CB"/>
<path d="M115 0.5C121.351 0.5 126.5 5.64873 126.5 12L126.5 22.44C126.5 28.7913 121.351 33.94 115 33.94L75.2645 33.94L74.7333 33.94C71.1832 33.94 67.8006 35.4495 65.4296 38.0918L63.864 39.8366C63.6654 40.058 63.3184 40.058 63.1197 39.8366L61.5542 38.0918C59.1832 35.4495 55.8006 33.94 52.2505 33.94L51.7193 33.94L12 33.94C5.64872 33.94 0.499999 28.7912 0.499999 22.44L0.499999 12C0.5 5.64872 5.64873 0.499999 12 0.499999L115 0.5Z" stroke="url(#paint0_linear)"/>
<defs>
<linearGradient id="paint0_linear" x1="127" y1="20.5" x2="-1.02562e-06" y2="20.5" gradientUnits="userSpaceOnUse">
<stop stop-color="#FF416F"/>
<stop offset="1" stop-color="#0072D7" stop-opacity="0"/>
</linearGradient>
</defs>
</svg>
