<svg width="84" height="72" viewBox="0 0 84 72" fill="none" xmlns="http://www.w3.org/2000/svg">
<path d="M41.9103 26.5283C44.78 24.8715 49.4328 24.8715 52.3026 26.5283L66.0907 34.4889C68.9605 36.1457 68.9605 38.832 66.0907 40.4889L65.0876 41.068C62.2179 42.7249 62.2179 45.4112 65.0876 47.068L66.6466 47.9681C69.5163 49.6249 69.5163 52.3112 66.6466 53.9681L41.741 68.3473C38.8713 70.0041 34.2185 70.0041 31.3487 68.3473L5.60939 53.4867C2.73963 51.8298 2.73963 49.1435 5.60938 47.4867L41.9103 26.5283Z" fill="#81859C" fill-opacity="0.7"/>
<path d="M41.9103 14.3169C44.78 12.66 49.4328 12.66 52.3026 14.3169L66.0907 22.2775C68.9605 23.9343 68.9605 26.6206 66.0907 28.2775L65.0876 28.8566C62.2179 30.5134 62.2179 33.1997 65.0876 34.8566L66.6466 35.7566C69.5163 37.4135 69.5163 40.0998 66.6466 41.7566L41.741 56.1359C38.8713 57.7927 34.2185 57.7927 31.3487 56.1359L5.60939 41.2752C2.73963 39.6184 2.73963 36.9321 5.60938 35.2752L41.9103 14.3169Z" fill="#F5F7FF"/>
<path d="M42.5598 4.33594C45.0708 2.88619 49.142 2.88619 51.6531 4.33594L65.4412 12.2965C67.9522 13.7463 67.9522 16.0968 65.4412 17.5465L64.4381 18.1256C61.2096 19.9896 61.2096 23.0117 64.4381 24.8756L65.9971 25.7757C68.5081 27.2254 68.5081 29.5759 65.9971 31.0257L41.0915 45.4049C38.5805 46.8546 34.5093 46.8546 31.9982 45.4049L6.25891 30.5443C3.74787 29.0945 3.74787 26.744 6.2589 25.2943L42.5598 4.33594Z" stroke="#81859C" stroke-width="1.5"/>
<path d="M23.8857 28.6333L38.7037 37.1884" stroke="#81859C" stroke-width="1.5" stroke-linecap="round" stroke-linejoin="round"/>
<path d="M27.2197 26.708L42.0376 35.2631" stroke="#81859C" stroke-width="1.5" stroke-linecap="round" stroke-linejoin="round"/>
<path d="M30.5547 24.7817L45.3726 33.3369" stroke="#81859C" stroke-width="1.5" stroke-linecap="round" stroke-linejoin="round"/>
<path d="M34.0215 22.7803L48.8394 31.3354" stroke="#81859C" stroke-width="1.5" stroke-linecap="round" stroke-linejoin="round"/>
<path d="M47.1353 19.294L47.1353 14.7554" stroke="#81859C" stroke-width="1.5" stroke-linecap="round"/>
<path d="M43.2047 17.0247L51.0659 17.0247" stroke="#81859C" stroke-width="1.5" stroke-linecap="round"/>
<path fill-rule="evenodd" clip-rule="evenodd" d="M39.2742 17.0245C39.2742 19.5312 42.7937 21.5632 47.1354 21.5632C51.477 21.5632 54.9966 19.5312 54.9966 17.0245C54.9966 14.5179 51.477 12.4858 47.1354 12.4858C42.7937 12.4858 39.2742 14.5179 39.2742 17.0245Z" stroke="#81859C" stroke-width="1.5"/>
<circle r="0.686225" transform="matrix(0.866025 0.5 -0.866025 0.5 20.5254 26.6935)" fill="#81859C"/>
<circle r="0.686225" transform="matrix(0.866025 0.5 -0.866025 0.5 23.8604 24.7678)" fill="#81859C"/>
<circle r="0.686225" transform="matrix(0.866025 0.5 -0.866025 0.5 27.1953 22.8425)" fill="#81859C"/>
<circle r="0.686225" transform="matrix(0.866025 0.5 -0.866025 0.5 30.5303 20.9172)" fill="#81859C"/>
</svg>
