<svg width="84" height="73" viewBox="0 0 84 73" fill="none" xmlns="http://www.w3.org/2000/svg">
<rect width="41.4366" height="53.9802" rx="6" transform="matrix(0.866025 0.5 -0.866025 0.5 47.4204 24.8516)" fill="#1044AA" fill-opacity="0.7"/>
<rect x="-8.9407e-08" y="1.5" width="38.4366" height="50.9802" rx="4.5" transform="matrix(0.866025 0.5 -0.866025 0.5 48.7194 13.6699)" fill="white" stroke="#EBF0FF" stroke-width="3"/>
<rect x="-4.47035e-08" y="0.75" width="39.9366" height="52.4802" rx="5.25" transform="matrix(0.866025 0.5 -0.866025 0.5 48.0699 1.37207)" stroke="#1062AA" stroke-width="1.5"/>
<path d="M43.9108 23.339L44.8851 23.9015L40.723 26.3045L39.7487 25.742L43.9108 23.339ZM45.0878 23.2265C44.9111 23.1245 44.8176 23.0075 44.8072 22.8755C44.802 22.7405 44.8825 22.625 45.0488 22.529C45.2151 22.433 45.4125 22.388 45.6411 22.394C45.875 22.397 46.0802 22.4495 46.2569 22.5515C46.4336 22.6535 46.5271 22.7705 46.5375 22.9025C46.5531 23.0315 46.4803 23.1425 46.3192 23.2355C46.1478 23.3345 45.9425 23.384 45.7035 23.384C45.4749 23.384 45.2696 23.3315 45.0878 23.2265Z" fill="#1062AA"/>
<path d="M39.8514 26.0849C42.031 27.3433 45.5647 27.3433 47.7443 26.0849C49.9238 24.8265 49.9238 22.7863 47.7443 21.528C45.5647 20.2696 42.031 20.2696 39.8514 21.528C37.6719 22.7863 37.6719 24.8265 39.8514 26.0849Z" stroke="#1062AA" stroke-width="1.5" stroke-miterlimit="10" stroke-linecap="round" stroke-linejoin="round"/>
<path d="M43.2565 31.2237C41.3096 31.2237 39.4573 31.7797 37.9533 32.3999C36.4398 33.0241 35.1518 33.7677 34.3256 34.2447L34.3125 34.2523C34.0114 34.4261 33.7554 34.4892 33.5636 34.5113C33.3651 34.5342 33.167 34.5209 32.9715 34.4833C32.7722 34.445 32.5951 34.3848 32.4633 34.3304C32.3992 34.304 32.3505 34.2809 32.3204 34.2658C32.3054 34.2583 32.2954 34.253 32.2908 34.2505C32.2902 34.2502 32.2897 34.2499 32.2893 34.2497L25.6626 30.4238C25.6623 30.4236 25.6618 30.4233 25.6613 30.4229C25.6569 30.4203 25.6477 30.4145 25.6348 30.4059C25.6087 30.3885 25.5687 30.3604 25.5229 30.3234C25.4287 30.2473 25.3245 30.145 25.258 30.0299C25.1929 29.9171 25.1699 29.8027 25.2096 29.6881C25.2479 29.5774 25.3571 29.4295 25.6582 29.2557L25.6713 29.2482C26.4975 28.7711 27.7855 28.0275 28.8666 27.1537C29.9409 26.2853 30.9039 25.2159 30.9039 24.0919C30.9039 19.8859 36.0617 16.4954 43.2565 16.4954C50.5232 16.4954 56.414 19.8965 56.414 24.0919C56.414 28.2521 50.7978 31.2237 43.2565 31.2237Z" stroke="#1062AA" stroke-width="1.5" stroke-linecap="round"/>
<mask id="path-7-inside-1" fill="white">
<path fill-rule="evenodd" clip-rule="evenodd" d="M23.075 31.9138L29.7105 35.7449L23.075 31.9138Z"/>
</mask>
<path d="M23.941 31.4138C23.4627 31.1377 22.6873 31.1377 22.209 31.4138C21.7307 31.69 21.7307 32.1377 22.209 32.4138L23.941 31.4138ZM28.8445 36.2449C29.3228 36.521 30.0983 36.521 30.5766 36.2449C31.0549 35.9687 31.0549 35.521 30.5766 35.2449L28.8445 36.2449ZM22.209 32.4138L28.8445 36.2449L30.5766 35.2449L23.941 31.4138L22.209 32.4138Z" fill="#81859C" mask="url(#path-7-inside-1)"/>
<mask id="path-9-inside-2" fill="white">
<path fill-rule="evenodd" clip-rule="evenodd" d="M59.1987 14.8887L55.7141 16.9005L59.1987 14.8887Z"/>
</mask>
<path d="M60.0648 15.3887C60.543 15.1125 60.543 14.6648 60.0648 14.3887C59.5865 14.1125 58.811 14.1125 58.3327 14.3887L60.0648 15.3887ZM54.8481 16.4005C54.3698 16.6766 54.3698 17.1244 54.8481 17.4005C55.3264 17.6766 56.1019 17.6766 56.5802 17.4005L54.8481 16.4005ZM58.3327 14.3887L54.8481 16.4005L56.5802 17.4005L60.0648 15.3887L58.3327 14.3887Z" fill="#81859C" mask="url(#path-9-inside-2)"/>
<mask id="path-11-inside-3" fill="white">
<path fill-rule="evenodd" clip-rule="evenodd" d="M65.7236 21.2573L60.7957 21.2573L65.7236 21.2573Z"/>
</mask>
<path d="M65.7236 21.9644C66.4 21.9644 66.9484 21.6478 66.9484 21.2573C66.9484 20.8668 66.4 20.5502 65.7236 20.5502L65.7236 21.9644ZM60.7957 20.5502C60.1193 20.5502 59.5709 20.8668 59.5709 21.2573C59.5709 21.6478 60.1193 21.9644 60.7957 21.9644L60.7957 20.5502ZM65.7236 20.5502L60.7957 20.5502L60.7957 21.9644L65.7236 21.9644L65.7236 20.5502Z" fill="#81859C" mask="url(#path-11-inside-3)"/>
<mask id="path-13-inside-4" fill="white">
<path fill-rule="evenodd" clip-rule="evenodd" d="M48.1685 11.1221L48.1685 13.9672L48.1685 11.1221Z"/>
</mask>
<path d="M46.9437 11.1221C46.9437 10.7315 47.492 10.415 48.1685 10.415C48.8449 10.415 49.3932 10.7315 49.3932 11.1221L46.9437 11.1221ZM49.3932 13.9672C49.3932 14.3578 48.8449 14.6743 48.1685 14.6743C47.492 14.6743 46.9437 14.3578 46.9437 13.9672L49.3932 13.9672ZM49.3932 11.1221L49.3932 13.9672L46.9437 13.9672L46.9437 11.1221L49.3932 11.1221Z" fill="#81859C" mask="url(#path-13-inside-4)"/>
</svg>
