<svg width="112" height="87" viewBox="0 0 112 87" fill="none" xmlns="http://www.w3.org/2000/svg">
<path fill-rule="evenodd" clip-rule="evenodd" d="M77.2398 40.5734C78.1997 40.3867 79.1148 40.9151 78.7915 41.4692L57.6341 77.7301C57.3439 78.2273 56.25 78.3754 55.6074 78.0044L39.4056 68.6502L55.5957 53.9615L29.6784 63.0343L13.9591 53.9587C13.3165 53.5877 13.573 52.9561 14.4342 52.7886L77.2398 40.5734Z" fill="#1044AA" fill-opacity="0.7"/>
<path fill-rule="evenodd" clip-rule="evenodd" d="M77.2398 30.6081C78.1997 30.4214 79.1148 30.9497 78.7915 31.5039L57.6341 67.7648C57.3439 68.262 56.25 68.41 55.6074 68.039L39.4056 58.6849L55.5957 43.9961L29.6784 53.069L13.9591 43.9934C13.3165 43.6224 13.573 42.9908 14.4342 42.8233L77.2398 30.6081Z" fill="white" stroke="#F5F7FF" stroke-width="1.5" stroke-linejoin="round"/>
<path fill-rule="evenodd" clip-rule="evenodd" d="M77.2398 19.1544C78.1997 18.9678 79.1148 19.4961 78.7915 20.0503L57.6341 56.3112C57.3439 56.8084 56.25 56.9564 55.6074 56.5854L39.4056 47.2313L55.5957 32.5425L29.6784 41.6153L13.9591 32.5398C13.3165 32.1688 13.573 31.5372 14.4342 31.3697L77.2398 19.1544Z" stroke="#1062AA" stroke-width="1.5" stroke-linejoin="round"/>
</svg>
