<svg width="78" height="64" viewBox="0 0 78 64" fill="none" xmlns="http://www.w3.org/2000/svg">
<rect width="38.8332" height="50.5887" rx="6" transform="matrix(0.866025 0.5 -0.866025 0.5 44.0635 19.1221)" fill="#81859C" fill-opacity="0.7"/>
<rect width="38.8332" height="50.5887" rx="6" transform="matrix(0.866025 0.5 -0.866025 0.5 44.0635 8.96582)" fill="#F5F7FF"/>
<rect x="-4.47035e-08" y="0.75" width="35.2949" height="46.4334" rx="5.25" transform="matrix(0.866025 0.5 -0.866025 0.5 44.4454 1.25439)" stroke="#81859C" stroke-width="1.5"/>
<path d="M42.6647 17.2909L52.3948 22.9085" stroke="#81859C" stroke-width="2" stroke-linecap="round"/>
<path d="M36.6862 20.7421L46.4162 26.3597" stroke="#81859C" stroke-width="2" stroke-linecap="round"/>
<path d="M30.7082 24.1937L40.4382 29.8114" stroke="#81859C" stroke-width="2" stroke-linecap="round"/>
<path fill-rule="evenodd" clip-rule="evenodd" d="M36.6038 15.1722C37.2755 15.56 38.3553 15.5653 39.0157 15.1841C39.676 14.8028 39.6668 14.1794 38.9951 13.7916C38.3233 13.4037 37.2435 13.3984 36.5832 13.7797C35.9228 14.1609 35.9321 14.7844 36.6038 15.1722Z" fill="#81859C"/>
<path fill-rule="evenodd" clip-rule="evenodd" d="M30.6258 18.6238C31.2975 19.0116 32.3773 19.017 33.0377 18.6357C33.698 18.2545 33.6888 17.631 33.017 17.2432C32.3453 16.8554 31.2655 16.8501 30.6051 17.2313C29.9448 17.6126 29.954 18.236 30.6258 18.6238Z" fill="#81859C"/>
<path fill-rule="evenodd" clip-rule="evenodd" d="M24.6477 22.0755C25.3194 22.4633 26.3993 22.4686 27.0596 22.0874C27.72 21.7061 27.7107 21.0827 27.039 20.6949C26.3673 20.3071 25.2874 20.3017 24.6271 20.683C23.9668 21.0642 23.976 21.6877 24.6477 22.0755Z" fill="#81859C"/>
</svg>
