<svg width="43" height="29" viewBox="0 0 43 29" fill="none" xmlns="http://www.w3.org/2000/svg">
<path d="M28.3869 27.7738C30.1608 27.7738 31.666 26.6238 32.1977 25.0287C32.3277 24.6388 32.8495 24.4227 33.2171 24.6064C34.721 25.3584 36.5986 25.1072 37.8529 23.8529C39.1072 22.5986 39.3583 20.721 38.6064 19.2171C38.4226 18.8496 38.6388 18.3277 39.0286 18.1977C40.6238 17.666 41.7738 16.1608 41.7738 14.3869C41.7738 12.6131 40.6238 11.1078 39.0287 10.5761C38.6388 10.4461 38.4227 9.92427 38.6064 9.55673C39.3584 8.0528 39.1072 6.17524 37.8529 4.92094C36.5986 3.66664 34.721 3.41546 33.2171 4.16741C32.8496 4.35118 32.3277 4.13501 32.1977 3.74517C31.666 2.15003 30.1608 1 28.3869 1C26.6131 1 25.1078 2.15002 24.5761 3.74514C24.4461 4.13498 23.9243 4.35114 23.5567 4.16737C22.0528 3.41543 20.1752 3.66661 18.9209 4.92091C17.6666 6.17521 17.4155 8.05278 18.1674 9.5567C18.3512 9.92425 18.135 10.4461 17.7452 10.5761C16.15 11.1078 15 12.6131 15 14.3869C15 16.1608 16.15 17.666 17.7451 18.1977C18.135 18.3277 18.3511 18.8495 18.1674 19.2171C17.4154 20.721 17.6666 22.5986 18.9209 23.8529C20.1752 25.1072 22.0528 25.3583 23.5567 24.6064C23.9242 24.4226 24.4461 24.6388 24.5761 25.0286C25.1078 26.6238 26.6131 27.7738 28.3869 27.7738Z" stroke="#00ADEE" stroke-linecap="round"/>
<path d="M23.0322 15.0566L26.379 18.4033L33.7418 11.0405" stroke="#00ADEE" stroke-linecap="round"/>
<path fill-rule="evenodd" clip-rule="evenodd" d="M1.27629 9.66264C1.10246 9.66264 1.03874 9.54256 1.13421 9.39405L6.55815 0.956801C6.65351 0.808465 6.73082 0.830826 6.73082 1.01493V6.13077C6.73082 6.31121 6.8769 6.45749 7.04557 6.45749H10.2622C10.4361 6.45749 10.4998 6.57756 10.4043 6.72607L4.98039 15.1633C4.88503 15.3117 4.80773 15.2893 4.80773 15.1052V9.98935C4.80773 9.80891 4.66165 9.66264 4.49298 9.66264H1.27629Z" stroke="#00ADEE" stroke-linecap="round" stroke-linejoin="round"/>
<circle cx="10.4478" cy="22.2788" r="2.52394" stroke="#00ADEE"/>
</svg>
