<svg width="194" height="36" viewBox="0 0 194 36" fill="none" xmlns="http://www.w3.org/2000/svg">
<path d="M86.4192 18.8964L85.6093 19.0101L84.3164 19.138L82.6399 19.2516C82.029 19.2516 81.3755 19.2516 80.7077 19.2516C79.6074 19.2815 78.5082 19.162 77.44 18.8964C76.7133 18.7242 76.0278 18.4103 75.4225 17.973C74.9709 17.6312 74.626 17.168 74.428 16.6374C74.2467 16.1414 74.1553 15.617 74.158 15.0888C74.1407 14.4528 74.2518 13.8197 74.4848 13.2276C74.7025 12.6923 75.0669 12.2294 75.5361 11.8921C76.1144 11.4956 76.7668 11.2202 77.4542 11.0823C78.3893 10.8935 79.3417 10.803 80.2957 10.8123C80.9492 10.8123 81.5602 10.8123 82.1427 10.8123L83.464 10.926C83.4704 10.4362 83.3685 9.95105 83.1656 9.50523C82.9829 9.15474 82.714 8.8565 82.3842 8.63857C82.0092 8.39824 81.5882 8.23857 81.1481 8.16972C80.6178 8.07991 80.0806 8.03712 79.5427 8.04185C78.7425 8.01441 77.9439 8.12988 77.1842 8.38283C76.7721 8.51906 76.3802 8.71022 76.0192 8.95113C75.8628 8.79822 75.7202 8.63182 75.593 8.45387C75.3954 8.20772 75.2854 7.90279 75.2804 7.5872C75.283 7.33703 75.3516 7.09197 75.4793 6.87683C75.6431 6.61183 75.8799 6.39971 76.1613 6.2659C76.5702 6.05211 77.012 5.90806 77.4684 5.83967C78.1764 5.71563 78.8952 5.66328 79.6137 5.68339C80.5457 5.67379 81.4756 5.77394 82.3842 5.98175C83.1537 6.15135 83.8825 6.4699 84.5295 6.91945C85.1382 7.35413 85.6269 7.93575 85.9503 8.61015C86.299 9.41162 86.4687 10.2795 86.4476 11.1533L86.4192 18.8964ZM83.5776 13.2134L82.6115 13.0571C81.9036 12.9837 81.1921 12.9505 80.4804 12.9577C79.6002 12.8915 78.7191 13.0736 77.9372 13.4834C77.6727 13.6685 77.4605 13.9188 77.3212 14.21C77.1818 14.5012 77.1199 14.8235 77.1416 15.1456C77.1376 15.4386 77.1957 15.7292 77.3121 15.9981C77.4365 16.2693 77.6394 16.497 77.8946 16.6516C78.2373 16.8522 78.6123 16.9916 79.0028 17.0637C79.5848 17.1622 80.1743 17.2097 80.7645 17.2057C81.3736 17.1964 81.9813 17.1441 82.5831 17.0495C82.8981 17.0194 83.2111 16.972 83.5208 16.9074L83.5776 13.2134Z" fill="#1062AA"/>
<path d="M89.4874 3.75132C89.47 3.55824 89.4982 3.36377 89.5697 3.1836C89.6413 3.00343 89.7543 2.84262 89.8995 2.71417C90.2309 2.48065 90.6313 2.36553 91.0361 2.38739C91.324 2.38739 91.6107 2.42561 91.8885 2.50105L92.4142 2.67154V6.03874H96.165C96.3776 6.01549 96.5926 6.03493 96.7976 6.09592C97.0025 6.15692 97.1932 6.25824 97.3585 6.39393C97.5986 6.67326 97.7208 7.03494 97.6994 7.40267C97.7033 7.67793 97.66 7.95182 97.5716 8.2125C97.4863 8.46824 97.4153 8.63873 97.3727 8.73819H92.4284V14.4212C92.4207 14.7942 92.4834 15.1654 92.6131 15.5152C92.724 15.7779 92.8942 16.0113 93.1104 16.1972C93.3328 16.3685 93.5897 16.4897 93.8634 16.5524C94.1517 16.622 94.4476 16.6554 94.7443 16.6518C95.2276 16.6618 95.7089 16.5848 96.165 16.4245C96.4916 16.3207 96.8023 16.1725 97.0885 15.9841L98.2677 17.9447L97.6994 18.3283C97.408 18.5035 97.0983 18.6464 96.7759 18.7545C95.9251 19.0879 95.0187 19.2566 94.1049 19.2518C93.4875 19.2953 92.8677 19.2146 92.2821 19.0145C91.6964 18.8144 91.1568 18.4989 90.6951 18.0868C90.3006 17.6895 89.9904 17.2167 89.7829 16.6967C89.5754 16.1768 89.4749 15.6203 89.4874 15.0606V3.75132Z" fill="#1062AA"/>
<path d="M106.31 5.6835C107.281 5.67089 108.245 5.84451 109.151 6.19498C109.982 6.52319 110.744 7.0052 111.396 7.61574C112.008 8.23381 112.492 8.96802 112.817 9.77529C113.178 10.6341 113.361 11.5572 113.357 12.4889C113.363 13.4116 113.179 14.3257 112.817 15.1742C112.499 15.9851 112.015 16.7207 111.396 17.3337C110.744 17.9443 109.982 18.4263 109.151 18.7545C107.356 19.4558 105.363 19.4558 103.567 18.7545C102.735 18.4297 101.973 17.9473 101.323 17.3337C100.704 16.7207 100.22 15.9851 99.9019 15.1742C99.5326 14.3278 99.3486 13.4123 99.362 12.4889C99.3501 11.5566 99.5341 10.6321 99.9019 9.77529C100.227 8.96802 100.71 8.23381 101.323 7.61574C101.971 7.00074 102.734 6.51814 103.567 6.19498C104.442 5.85488 105.372 5.6814 106.31 5.6835ZM106.31 16.7086C106.876 16.7228 107.439 16.6112 107.958 16.3818C108.443 16.1776 108.878 15.8724 109.236 15.4867C109.594 15.0983 109.873 14.6449 110.06 14.1512C110.264 13.621 110.365 13.0569 110.359 12.4889C110.363 11.9166 110.262 11.3483 110.06 10.8124C109.889 10.3056 109.613 9.84025 109.251 9.44631C108.889 9.05237 108.448 8.73855 107.958 8.52502C107.445 8.31119 106.894 8.20481 106.338 8.21245C105.773 8.19788 105.211 8.30445 104.69 8.52502C104.212 8.73463 103.782 9.03915 103.425 9.4201C103.053 9.83021 102.773 10.3144 102.601 10.8409C102.394 11.366 102.283 11.9244 102.275 12.4889C102.27 13.0779 102.381 13.662 102.601 14.2081C102.788 14.7018 103.068 15.1551 103.425 15.5436C103.778 15.9289 104.209 16.2342 104.69 16.4386C105.203 16.6472 105.756 16.7393 106.31 16.7086Z" fill="#1062AA"/>
<path d="M115.858 10.6419C115.849 9.91405 115.994 9.19251 116.284 8.52498C116.562 7.92694 116.976 7.40169 117.492 6.99056C118.033 6.54429 118.655 6.20662 119.325 5.99602C120.035 5.78559 120.772 5.68029 121.512 5.68346C122.49 5.67382 123.459 5.87239 124.354 6.26597C125.203 6.63666 125.925 7.24942 126.428 8.02771C126.906 7.26456 127.591 6.6534 128.403 6.26597C129.295 5.86279 130.266 5.66378 131.245 5.68346C131.995 5.6747 132.742 5.78009 133.461 5.99602C134.11 6.1788 134.715 6.49314 135.237 6.91952C135.729 7.36501 136.117 7.91307 136.374 8.52498C136.675 9.20454 136.825 9.94131 136.814 10.6845V19.0102H133.816V11.6222C133.863 11.1687 133.817 10.7103 133.68 10.2754C133.543 9.84046 133.319 9.43815 133.021 9.09328C132.729 8.82871 132.389 8.62464 132.018 8.49294C131.647 8.36123 131.254 8.30451 130.861 8.32607C130.458 8.31522 130.057 8.38504 129.681 8.53143C129.305 8.67782 128.963 8.89783 128.673 9.17853C128.356 9.55821 128.12 9.99829 127.978 10.4721C127.837 10.9459 127.793 11.4435 127.849 11.9348V18.9391H124.851V11.9348C124.897 11.4398 124.842 10.9407 124.691 10.4672C124.539 9.9937 124.294 9.55546 123.97 9.17853C123.677 8.8987 123.332 8.67937 122.954 8.5331C122.576 8.38683 122.173 8.31648 121.768 8.32607C121.374 8.30641 120.981 8.36539 120.61 8.49955C120.239 8.63371 119.899 8.84038 119.609 9.10749C119.302 9.4508 119.07 9.85429 118.928 10.2922C118.787 10.7301 118.738 11.1927 118.785 11.6506V18.9391H115.858V10.6419Z" fill="#1062AA"/>
<path d="M139.427 13.0857C139.413 12.0173 139.586 10.9547 139.938 9.94586C140.246 9.08797 140.73 8.30397 141.359 7.64423C141.995 7.0128 142.761 6.52791 143.604 6.22347C144.515 5.89502 145.477 5.73144 146.445 5.74041C147.37 5.73027 148.287 5.90413 149.145 6.25188C149.947 6.57795 150.676 7.06098 151.29 7.67264C151.91 8.2843 152.395 9.02024 152.711 9.8322C153.057 10.6946 153.231 11.6165 153.222 12.5458C153.231 13.4831 153.062 14.4135 152.725 15.2879C152.402 16.0923 151.919 16.8223 151.304 17.4333C150.706 18.037 149.997 18.5195 149.216 18.854C148.39 19.1891 147.506 19.358 146.616 19.3513C145.716 19.3703 144.825 19.1755 144.016 18.783C143.324 18.4499 142.716 17.9641 142.24 17.3622V24.1534H139.427V13.0857ZM146.317 16.6803C146.868 16.688 147.415 16.5816 147.923 16.3677C148.399 16.1626 148.825 15.8573 149.173 15.4726C149.534 15.0892 149.81 14.6342 149.983 14.1371C150.18 13.6056 150.277 13.0418 150.267 12.4748C150.277 11.9171 150.18 11.3626 149.983 10.8409C149.805 10.3468 149.525 9.89624 149.159 9.51963C148.806 9.14775 148.38 8.85271 147.908 8.65297C147.406 8.43653 146.864 8.32532 146.317 8.32619C145.766 8.31722 145.219 8.42369 144.712 8.63876C144.234 8.82801 143.802 9.11886 143.447 9.49121C143.085 9.85927 142.804 10.2999 142.623 10.7841C142.225 11.8664 142.225 13.0548 142.623 14.1371C142.809 14.6283 143.083 15.0811 143.433 15.4726C143.778 15.8604 144.205 16.1663 144.683 16.3677C145.2 16.5842 145.757 16.6907 146.317 16.6803Z" fill="#1062AA"/>
<path d="M167.418 18.8964L166.608 19.0101L165.315 19.1379L163.639 19.2516C163.028 19.2516 162.389 19.2516 161.721 19.2516C160.616 19.2813 159.512 19.1619 158.439 18.8964C157.715 18.7274 157.034 18.4133 156.436 17.9729C155.976 17.636 155.625 17.1717 155.427 16.6374C155.252 16.1395 155.161 15.6163 155.157 15.0888C155.147 14.4533 155.257 13.8216 155.484 13.2276C155.707 12.6953 156.07 12.2337 156.535 11.8921C157.113 11.4956 157.766 11.2201 158.453 11.0822C159.388 10.8934 160.341 10.803 161.295 10.8123C161.948 10.8123 162.573 10.8123 163.156 10.8123L164.463 10.926C164.469 10.4362 164.367 9.95102 164.165 9.50519C163.982 9.13047 163.702 8.81156 163.355 8.5817C162.98 8.34137 162.559 8.1817 162.119 8.11285C161.591 8.0423 161.059 8.01853 160.527 8.04181C159.732 8.01299 158.938 8.12851 158.183 8.38279C157.767 8.5199 157.37 8.71096 157.004 8.9511C156.847 8.79819 156.705 8.63179 156.578 8.45383C156.422 8.22036 156.339 7.94598 156.339 7.66531C156.339 7.38464 156.422 7.11026 156.578 6.87679C156.742 6.6118 156.978 6.39968 157.26 6.26586C157.669 6.05399 158.111 5.91004 158.567 5.83964C159.242 5.72263 159.927 5.6703 160.613 5.68335C161.54 5.67408 162.465 5.77423 163.369 5.98171C164.138 6.15131 164.867 6.46987 165.514 6.91941C166.128 7.34837 166.618 7.93151 166.935 8.61012C167.284 9.41159 167.453 10.2795 167.432 11.1533L167.418 18.8964ZM164.577 13.2134L163.61 13.0571C162.907 12.9835 162.2 12.9502 161.493 12.9576C160.613 12.8899 159.732 13.0721 158.95 13.4833C158.681 13.6648 158.465 13.914 158.322 14.2058C158.18 14.4977 158.118 14.8218 158.141 15.1456C158.136 15.4386 158.195 15.7291 158.311 15.9981C158.44 16.2661 158.642 16.4925 158.894 16.6516C159.24 16.8545 159.62 16.9941 160.016 17.0636C160.598 17.1632 161.187 17.2107 161.778 17.2057C162.404 17.2169 163.031 17.1837 163.653 17.1063C163.963 17.0753 164.271 17.0279 164.577 16.9642V13.2134Z" fill="#1062AA"/>
<path d="M170.471 10.6422C170.427 9.96467 170.532 9.2858 170.777 8.65278C171.022 8.01976 171.403 7.44778 171.891 6.97663C173.019 6.06125 174.448 5.60014 175.898 5.68373C176.801 5.64678 177.702 5.80174 178.54 6.13838C178.843 6.22958 179.106 6.41872 179.288 6.67597C179.471 6.93321 179.563 7.24393 179.549 7.55914C179.546 7.85971 179.463 8.15396 179.308 8.41159C179.208 8.60557 179.073 8.7791 178.91 8.92307C178.557 8.77501 178.197 8.64694 177.83 8.53946C177.366 8.41821 176.889 8.35615 176.409 8.35476C174.406 8.35476 173.397 9.42033 173.397 11.5515V18.9962H170.471V10.6422Z" fill="#1062AA"/>
<path d="M181.127 1.42135C181.108 1.23027 181.136 1.03751 181.208 0.859431C181.279 0.681348 181.393 0.523198 181.539 0.398402C181.862 0.13099 182.271 -0.0103412 182.69 0.000589776C182.978 -0.000443652 183.264 0.0377955 183.542 0.114251L184.054 0.284742V10.7984L184.991 10.1164L186.341 9.12187L187.875 7.99946L189.396 6.89127C189.722 6.65191 190.069 6.44267 190.433 6.26614C190.812 6.09703 191.226 6.01918 191.64 6.03882C192.063 6.03059 192.477 6.16026 192.82 6.40822C193.065 6.57753 193.273 6.79508 193.431 7.04756C193.075 7.37433 192.578 7.77214 192.01 8.24099L190.092 9.66175C189.452 10.1448 188.827 10.571 188.245 10.9831L186.994 11.8639C188.42 12.9161 189.751 14.0903 190.973 15.3732C192.057 16.5002 193.068 17.6961 193.999 18.9535H190.362C189.964 18.4847 189.523 17.9732 189.026 17.4617C188.529 16.9502 188.017 16.4246 187.463 15.9131C186.909 15.4016 186.341 14.9186 185.773 14.4923C185.204 14.0661 184.636 13.583 184.11 13.1994V18.9961H181.127V1.42135Z" fill="#1062AA"/>
<path d="M74.7407 33.4594L75.0675 33.6441L75.6642 33.8572C76.2526 34.0432 76.8657 34.139 77.4828 34.1414C77.8698 34.1511 78.2553 34.0884 78.6194 33.9567C78.7361 33.9148 78.8391 33.8418 78.9175 33.7457C78.9958 33.6496 79.0465 33.534 79.064 33.4113C79.0815 33.2885 79.0653 33.1634 79.017 33.0492C78.9687 32.935 78.8902 32.8361 78.7899 32.7632C78.4806 32.5907 78.135 32.4934 77.7811 32.4791L76.7014 32.3654C76.3652 32.3252 76.0326 32.2587 75.7068 32.1665C75.4332 32.0782 75.1745 31.9489 74.9396 31.7829C74.7289 31.6224 74.5546 31.419 74.4282 31.1862C74.3115 30.9221 74.2512 30.6366 74.2512 30.3479C74.2512 30.0593 74.3115 29.7737 74.4282 29.5097C74.5526 29.2435 74.7375 29.01 74.968 28.8277C75.2499 28.6197 75.5678 28.4655 75.9057 28.3731C76.3692 28.2509 76.8473 28.1935 77.3265 28.2026C78.0643 28.169 78.8018 28.2751 79.5003 28.5152C80.0259 28.7141 80.2817 28.984 80.2817 29.325C80.2821 29.4196 80.2576 29.5127 80.2106 29.5949C80.1766 29.6752 80.1337 29.7514 80.0828 29.8223C80.0381 29.8812 79.9855 29.9338 79.9265 29.9785H79.8128C79.73 29.9186 79.6391 29.8708 79.5429 29.8365C79.3848 29.7449 79.2183 29.6688 79.0456 29.6091C78.807 29.517 78.5594 29.4504 78.3068 29.4102C77.9806 29.337 77.6466 29.3036 77.3123 29.3108C76.2751 29.3108 75.7495 29.5949 75.7495 30.1348C75.7453 30.2435 75.7709 30.3512 75.8235 30.4463C75.876 30.5415 75.9536 30.6204 76.0478 30.6747C76.3134 30.8104 76.603 30.8924 76.9003 30.9162L78.321 31.0867C78.9426 31.1441 79.5392 31.3593 80.0544 31.7119C80.2707 31.8753 80.4408 32.0923 80.5479 32.3414C80.655 32.5905 80.6955 32.8632 80.6653 33.1326C80.6734 33.4448 80.6051 33.7542 80.4665 34.034C80.3278 34.3138 80.1229 34.5555 79.8697 34.7381C79.19 35.1883 78.3814 35.4029 77.568 35.349C77.1251 35.3514 76.6828 35.3134 76.2467 35.2353C75.8971 35.1727 75.5509 35.0921 75.2096 34.9938C74.9697 34.9194 74.7368 34.8243 74.5134 34.7097C74.3887 34.6553 74.2697 34.5886 74.1582 34.5108L74.7407 33.4594Z" fill="#FFC145"/>
<path d="M90.7527 28.2025C91.2391 28.2016 91.7212 28.2932 92.1734 28.4725C92.6097 28.6418 93.0099 28.8925 93.3526 29.2113C93.6855 29.535 93.951 29.9212 94.1341 30.3479C94.3232 30.7977 94.4206 31.2807 94.4206 31.7686C94.4206 32.2566 94.3232 32.7396 94.1341 33.1894C93.9467 33.6156 93.6771 34.0007 93.3407 34.3225C93.0042 34.6443 92.6076 34.8966 92.1734 35.0648C91.2394 35.4432 90.1948 35.4432 89.2609 35.0648C88.8184 34.9011 88.4163 34.6443 88.0816 34.3118C87.7418 33.9996 87.475 33.6164 87.3002 33.1894C87.1111 32.7396 87.0137 32.2566 87.0137 31.7686C87.0137 31.2807 87.1111 30.7977 87.3002 30.3479C87.4784 29.9185 87.7446 29.5313 88.0816 29.2113C88.4243 28.8925 88.8245 28.6418 89.2609 28.4725C89.735 28.2834 90.2423 28.1916 90.7527 28.2025ZM90.7527 33.9708C91.0457 33.9748 91.3362 33.9167 91.6051 33.8003C91.8601 33.6962 92.0883 33.5359 92.2729 33.3315C92.4603 33.1304 92.6052 32.8936 92.6991 32.6353C92.8094 32.36 92.8626 32.0651 92.8554 31.7686C92.8625 31.4675 92.8094 31.168 92.6991 30.8878C92.6055 30.6251 92.4606 30.3836 92.2729 30.1774C92.0875 29.9773 91.8592 29.8219 91.6051 29.7227C91.335 29.6102 91.0453 29.5523 90.7527 29.5523C90.46 29.5523 90.1703 29.6102 89.9002 29.7227C89.6503 29.822 89.4266 29.9776 89.2467 30.1774C89.0589 30.3836 88.914 30.6251 88.8204 30.8878C88.7101 31.168 88.657 31.4675 88.6641 31.7686C88.657 32.0651 88.7101 32.36 88.8204 32.6353C88.9143 32.8936 89.0593 33.1304 89.2467 33.3315C89.4261 33.5353 89.6496 33.6956 89.9002 33.8003C90.1691 33.9167 90.4597 33.9748 90.7527 33.9708Z" fill="#FFC145"/>
<path d="M101.167 27.9753C101.156 27.5487 101.229 27.124 101.38 26.7251C101.489 26.3946 101.685 26.1 101.949 25.8726C102.196 25.6469 102.493 25.4816 102.815 25.3896C103.178 25.2772 103.557 25.2245 103.938 25.2333C104.467 25.1959 104.997 25.2835 105.486 25.489C105.618 25.5463 105.732 25.639 105.815 25.7568C105.897 25.8747 105.946 26.0131 105.955 26.1568C105.958 26.2999 105.913 26.44 105.827 26.5546C105.755 26.6657 105.658 26.7583 105.543 26.8245C105.368 26.6985 105.17 26.6069 104.961 26.5546C104.708 26.4733 104.444 26.4349 104.179 26.4409C103.972 26.4199 103.763 26.4447 103.567 26.5134C103.37 26.5822 103.191 26.6932 103.042 26.8387C102.795 27.1695 102.674 27.5776 102.702 27.9895V28.4158H104.719C104.83 28.4024 104.943 28.4119 105.051 28.4437C105.158 28.4754 105.258 28.5288 105.344 28.6005C105.409 28.6706 105.46 28.7536 105.491 28.844C105.523 28.9345 105.536 29.0305 105.529 29.1261C105.535 29.2716 105.511 29.4169 105.458 29.5524C105.43 29.6488 105.396 29.7436 105.358 29.8365H102.702V35.1786H101.167V27.9753Z" fill="#FFC145"/>
<path d="M111.595 27.194C111.585 27.0936 111.599 26.9923 111.636 26.8985C111.673 26.8046 111.732 26.7209 111.808 26.6541C111.982 26.5312 112.192 26.4711 112.405 26.4836C112.555 26.4618 112.708 26.4618 112.859 26.4836L113.129 26.5689V28.4158H115.061C115.29 28.3914 115.52 28.4577 115.701 28.6005C115.822 28.7478 115.883 28.9357 115.871 29.1262C115.893 29.2675 115.893 29.4112 115.871 29.5524C115.871 29.6803 115.786 29.7798 115.758 29.8366H113.129V32.8344C113.12 33.0288 113.154 33.2229 113.229 33.4027C113.276 33.5442 113.365 33.668 113.484 33.7579C113.6 33.85 113.737 33.9133 113.882 33.9426C114.033 33.9644 114.186 33.9644 114.337 33.9426C114.587 33.9428 114.837 33.9045 115.076 33.8289C115.244 33.7698 115.406 33.6937 115.559 33.6016L116.17 34.6246L115.871 34.8235C115.717 34.9129 115.555 34.9889 115.388 35.0508C115.184 35.1246 114.975 35.1863 114.763 35.2355C114.51 35.2815 114.253 35.3053 113.996 35.3065C113.676 35.3347 113.353 35.2976 113.048 35.1975C112.743 35.0974 112.461 34.9363 112.22 34.724C112.014 34.5119 111.854 34.2602 111.749 33.9842C111.644 33.7082 111.596 33.4136 111.609 33.1186L111.595 27.194Z" fill="#FFC145"/>
<path d="M123.899 35.1501C123.458 34.113 123.089 33.2321 122.819 32.5217C122.549 31.8113 122.308 31.2572 122.166 30.7315C122.03 30.3788 121.917 30.0182 121.825 29.6518C121.766 29.472 121.728 29.2861 121.711 29.0977C121.713 28.9129 121.784 28.7354 121.91 28.6004C121.984 28.5259 122.072 28.4683 122.171 28.4315C122.269 28.3947 122.374 28.3796 122.478 28.3873C122.634 28.368 122.791 28.368 122.947 28.3873L123.174 28.4725C123.274 28.8561 123.402 29.2824 123.53 29.7228L123.956 31.0583L124.368 32.3086L124.751 33.3742L125.064 32.4222C125.178 32.0718 125.291 31.7024 125.405 31.3141C125.533 30.9305 125.646 30.5468 125.76 30.1632C125.874 29.7796 125.987 29.396 126.087 29.0408C126.141 28.8403 126.249 28.6585 126.399 28.5152C126.579 28.4089 126.792 28.3734 126.996 28.4157C127.16 28.4163 127.322 28.4402 127.479 28.4867L127.749 28.6004L128.119 29.8649C128.261 30.3053 128.389 30.7458 128.516 31.172L128.914 32.408C129.056 32.8059 129.17 33.161 129.284 33.4594C129.511 32.8485 129.752 32.1665 129.994 31.4277C130.235 30.6889 130.463 30.007 130.676 29.2255C130.729 28.9994 130.836 28.7897 130.988 28.6146C131.07 28.5433 131.164 28.489 131.267 28.4549C131.369 28.4207 131.478 28.4074 131.585 28.4157C131.792 28.4078 131.997 28.4517 132.182 28.5436C132.272 28.5809 132.358 28.6286 132.438 28.6857C132.438 28.984 132.239 29.396 132.068 29.9075C131.898 30.419 131.685 31.0015 131.457 31.5982C131.23 32.1949 130.988 32.8201 130.747 33.4594L130.037 35.1785H128.445L128.147 34.3403L127.763 33.161C127.607 32.7206 127.465 32.2802 127.337 31.8255L126.954 30.5895C126.821 30.9589 126.693 31.3709 126.57 31.8255L126.144 33.161C126.016 33.5873 125.888 33.9851 125.76 34.3403C125.632 34.6955 125.561 34.9796 125.476 35.1785L123.899 35.1501Z" fill="#FFC145"/>
<path d="M144.785 35.1216H144.358H143.691H142.81H141.801C141.222 35.1371 140.644 35.075 140.082 34.9369C139.706 34.8514 139.352 34.6868 139.045 34.4539C138.801 34.2827 138.617 34.0391 138.519 33.7577C138.423 33.4937 138.375 33.2146 138.377 32.9336C138.375 32.6051 138.427 32.2785 138.533 31.9675C138.65 31.6887 138.842 31.4477 139.087 31.2714C139.393 31.0652 139.735 30.9205 140.096 30.8451C140.592 30.7467 141.097 30.6991 141.602 30.7031C141.943 30.7031 142.27 30.7031 142.568 30.7031H143.25C143.263 30.4337 143.21 30.1652 143.094 29.9216C143.005 29.7252 142.862 29.5578 142.682 29.4386C142.482 29.316 142.26 29.234 142.028 29.197C141.752 29.1492 141.471 29.1254 141.19 29.126C140.776 29.1134 140.363 29.171 139.968 29.2965C139.755 29.3755 139.551 29.4755 139.357 29.5949C139.272 29.5184 139.196 29.4327 139.13 29.3391C139.037 29.2061 138.987 29.0471 138.988 28.8845C138.994 28.7556 139.028 28.6296 139.087 28.5151C139.178 28.379 139.3 28.2669 139.443 28.1883C139.662 28.0799 139.897 28.0079 140.139 27.9752C140.495 27.9125 140.857 27.8839 141.219 27.8899C141.697 27.8887 142.173 27.9411 142.639 28.0462C143.041 28.1346 143.422 28.2985 143.762 28.5293C144.081 28.7592 144.335 29.0675 144.501 29.4244C144.682 29.8457 144.769 30.3014 144.756 30.7599L144.785 35.1216ZM143.264 32.138L142.767 32.0528C142.398 32.0251 142.028 32.0251 141.659 32.0528C141.198 32.0245 140.737 32.1175 140.323 32.3227C140.183 32.42 140.071 32.5528 139.999 32.7075C139.926 32.8623 139.896 33.0334 139.911 33.2036C139.911 33.3546 139.94 33.5042 139.997 33.644C140.063 33.7829 140.166 33.9009 140.295 33.985C140.471 34.0981 140.67 34.1709 140.878 34.1981C141.185 34.2309 141.494 34.2309 141.801 34.1981C142.128 34.2163 142.455 34.2163 142.781 34.1981L143.264 34.1271V32.138Z" fill="#FFC145"/>
<path d="M151.746 30.8024C151.726 30.4474 151.783 30.0922 151.913 29.7612C152.043 29.4302 152.243 29.1312 152.499 28.8844C153.094 28.3992 153.85 28.1557 154.616 28.2025C155.101 28.1826 155.585 28.2648 156.037 28.444C156.189 28.4899 156.323 28.5839 156.417 28.7119C156.512 28.8399 156.563 28.9951 156.562 29.1544C156.562 29.3102 156.517 29.4627 156.435 29.5948C156.389 29.7022 156.315 29.7954 156.221 29.8647C156.041 29.7871 155.856 29.7207 155.667 29.6658C155.416 29.6063 155.158 29.5776 154.9 29.5806C153.849 29.5806 153.323 30.1347 153.323 31.2429V35.15H151.789L151.746 30.8024Z" fill="#FFC145"/>
<path d="M168.597 34.6527L168.27 34.8374C168.082 34.9276 167.888 35.0036 167.688 35.0647C167.431 35.141 167.17 35.2026 166.907 35.2494C166.578 35.3078 166.245 35.3364 165.912 35.3346C165.429 35.3345 164.95 35.2578 164.491 35.1073C164.07 34.9597 163.683 34.7276 163.355 34.4254C163.012 34.1212 162.745 33.7419 162.573 33.3172C162.194 32.3636 162.194 31.3013 162.573 30.3478C162.748 29.9201 163.009 29.5331 163.34 29.2112C163.671 28.8867 164.062 28.6308 164.491 28.4582C164.946 28.2888 165.427 28.2022 165.912 28.2024C166.332 28.1925 166.75 28.255 167.148 28.3871C167.477 28.4929 167.785 28.6565 168.057 28.8702C168.292 29.0632 168.481 29.3058 168.611 29.5806C168.738 29.8468 168.801 30.1385 168.796 30.433C168.8 30.726 168.742 31.0166 168.626 31.2855C168.489 31.5659 168.271 31.7987 168.001 31.9532C167.633 32.1686 167.228 32.3132 166.807 32.3795C166.179 32.4925 165.541 32.5449 164.903 32.5358H163.895C163.925 32.7562 163.999 32.9682 164.114 33.1588C164.229 33.3493 164.381 33.5144 164.562 33.6439C165.043 33.9801 165.625 34.1406 166.21 34.0986C166.423 34.121 166.637 34.121 166.85 34.0986C167.032 34.0677 167.213 34.025 167.39 33.9707L167.787 33.8002L168.043 33.6866L168.597 34.6527ZM163.88 31.456H165.031C165.436 31.466 165.841 31.4326 166.239 31.3565C166.487 31.3157 166.727 31.2341 166.949 31.115C167.094 31.0446 167.214 30.9303 167.29 30.7882C167.312 30.6565 167.312 30.5221 167.29 30.3904C167.3 30.2368 167.267 30.0835 167.194 29.9479C167.121 29.8123 167.012 29.6998 166.878 29.6232C166.573 29.4438 166.223 29.3551 165.869 29.3675C165.565 29.3583 165.263 29.4216 164.989 29.5522C164.753 29.6623 164.541 29.8166 164.363 30.0068C164.191 30.2031 164.056 30.4295 163.966 30.6746C163.895 30.9288 163.867 31.1926 163.88 31.456Z" fill="#FFC145"/>
<path d="M31.1231 11.3665V11.4518C31.0501 11.1964 31.0501 10.9257 31.1231 10.6704C31.226 10.3186 31.4608 10.0202 31.7786 9.83753C32.0963 9.65484 32.4723 9.602 32.8281 9.69003L38.1559 11.1108C38.5068 11.2078 38.8071 11.4358 38.9948 11.7477C39.1825 12.0597 39.2433 12.4318 39.1646 12.7873C39.0767 13.0968 38.8864 13.3673 38.6247 13.5545C37.8433 14.1228 35.1297 15.9556 35.1297 15.9556C34.9563 16.0758 34.7583 16.1559 34.5501 16.1901C34.3419 16.2243 34.1287 16.2117 33.926 16.1532C33.7233 16.0947 33.5362 15.9918 33.3782 15.8519C33.2202 15.7121 33.0954 15.5388 33.0127 15.3447L31.2368 11.5512C31.104 11.2516 31.079 10.9153 31.1658 10.5993C31.2686 10.2476 31.5035 9.94917 31.8212 9.76649C32.1389 9.58381 32.5149 9.53096 32.8707 9.61899L38.1985 11.0398C38.557 11.1454 38.8595 11.3881 39.0403 11.7152C39.2212 12.0423 39.2658 12.4275 39.1646 12.7873C39.0767 13.0968 38.8864 13.3673 38.6247 13.5545" fill="#FFC145"/>
<path d="M66.1736 25.6738L58.814 15.7285C57.4914 13.8139 55.5333 12.4297 53.2873 11.8214C52.5791 11.6525 51.8554 11.5573 51.1277 11.5372C50.3659 10.3131 49.1673 9.42433 47.7747 9.05089L25.6819 3.14053C24.9484 2.93886 24.1819 2.8865 23.4278 2.98656C22.6737 3.08662 21.9473 3.33706 21.2918 3.72304C20.5012 3.23783 19.6446 2.86936 18.7486 2.62906C16.5022 2.03005 14.1162 2.2465 12.0142 3.23999L0.64815 8.1416C0.376025 8.29114 0.16928 8.53659 0.0681594 8.83016C-0.0329618 9.12374 -0.021223 9.44444 0.101091 9.72984C0.223404 10.0152 0.44754 10.2449 0.729869 10.3742C1.0122 10.5034 1.33252 10.523 1.62847 10.429L12.9945 5.52741C14.5618 4.7609 16.354 4.58925 18.0382 5.04435C18.4864 5.16943 18.9236 5.33099 19.3453 5.52741C19.0583 6.02002 18.843 6.55105 18.706 7.10445L14.6568 22.3066C14.4614 23.0286 14.4104 23.7822 14.5068 24.524C14.6032 25.2658 14.8452 25.9813 15.2187 26.6294C15.5923 27.2775 16.0901 27.8455 16.6837 28.3008C17.2772 28.7561 17.9548 29.0897 18.6776 29.2825L40.7278 35.1786C41.4489 35.372 42.201 35.4213 42.9412 35.3239C43.6814 35.2264 44.3952 34.9841 45.0417 34.6107C45.6882 34.2373 46.2548 33.7402 46.7091 33.1477C47.1634 32.5553 47.4966 31.8791 47.6895 31.1579L51.7528 16.0126C51.9152 15.3967 51.9728 14.758 51.9233 14.123C52.1688 14.1546 52.4112 14.2069 52.6479 14.2793C54.3443 14.7183 55.8236 15.7583 56.8108 17.206L64.1845 27.1514C64.2813 27.2823 64.403 27.3928 64.5426 27.4765C64.6822 27.5603 64.837 27.6156 64.998 27.6394C65.1591 27.6632 65.3232 27.6549 65.4811 27.615C65.6389 27.5751 65.7874 27.5045 65.9178 27.4071C66.1791 27.2093 66.3523 26.9169 66.4001 26.5927C66.4479 26.2686 66.3666 25.9386 66.1736 25.6738ZM47.0786 11.4662C47.5193 11.5833 47.9307 11.7914 48.2862 12.0771L35.4141 17.7601H35.2863C34.7353 18.0165 34.112 18.0718 33.5245 17.9164C32.9098 17.7555 32.3776 17.3703 32.0327 16.8366L23.6218 5.47058C24.0899 5.36865 24.5745 5.36865 25.0426 5.47058L47.0786 11.4662ZM45.2884 30.5186C45.1796 30.9246 44.9919 31.3052 44.7358 31.6386C44.4798 31.9719 44.1605 32.2515 43.7963 32.4614C43.4321 32.6712 43.03 32.8071 42.6132 32.8614C42.1964 32.9156 41.7729 32.8872 41.3671 32.7776L19.3169 26.8672C18.9089 26.7631 18.5255 26.5791 18.1891 26.3257C17.8528 26.0724 17.57 25.7548 17.3572 25.3914C17.1444 25.028 17.0059 24.6259 16.9497 24.2086C16.8934 23.7913 16.9206 23.3669 17.0295 22.9601L21.1071 7.81483C21.1948 7.49162 21.3339 7.18461 21.5191 6.90554L29.9726 18.2716C30.6319 19.2925 31.643 20.0357 32.8141 20.3601C34.0212 20.6888 35.3074 20.5572 36.4229 19.9907L49.3802 14.3077C49.4101 14.6754 49.3765 15.0454 49.2807 15.4017L45.2884 30.5186Z" fill="#1062AA"/>
<path d="M12.0856 9.06486L4.55561 12.3326C4.4047 12.3961 4.26791 12.4889 4.15317 12.6057C4.03843 12.7225 3.94804 12.8609 3.88724 13.0129C3.82643 13.1649 3.79643 13.3275 3.79898 13.4912C3.80152 13.6549 3.83656 13.8164 3.90206 13.9665C3.97873 14.1382 4.09232 14.2909 4.23476 14.4137C4.37719 14.5365 4.54496 14.6263 4.7261 14.6769C4.98839 14.7678 5.27365 14.7678 5.53593 14.6769L13.0802 11.3665C13.2298 11.3017 13.3652 11.2079 13.4784 11.0905C13.5917 10.9732 13.6806 10.8345 13.74 10.6827C13.7994 10.5308 13.8282 10.3686 13.8247 10.2056C13.8212 10.0425 13.7854 9.88179 13.7195 9.73262C13.5909 9.42779 13.3468 9.18635 13.0405 9.06119C12.7343 8.93603 12.3909 8.93735 12.0856 9.06486Z" fill="#1062AA"/>
<path d="M10.1805 15.6289L8.23409 16.4671C7.96196 16.6167 7.75522 16.8621 7.6541 17.1557C7.55298 17.4493 7.56471 17.77 7.68703 18.0554C7.80934 18.3408 8.03348 18.5704 8.31581 18.6997C8.59814 18.8289 8.91845 18.8485 9.21441 18.7546L11.1609 17.9163C11.433 17.7668 11.6397 17.5213 11.7408 17.2278C11.842 16.9342 11.8302 16.6135 11.7079 16.3281C11.5856 16.0427 11.3615 15.813 11.0791 15.6838C10.7968 15.5545 10.4765 15.535 10.1805 15.6289Z" fill="#1062AA"/>
<path d="M55.8018 20.9141L60.6466 27.5491C60.7432 27.6804 60.8129 27.8296 60.8517 27.9879C60.8904 28.1463 60.8975 28.3108 60.8724 28.4719C60.8473 28.633 60.7906 28.7876 60.7055 28.9267C60.6204 29.0658 60.5086 29.1867 60.3766 29.2824C60.246 29.3809 60.0969 29.4522 59.9383 29.492C59.7796 29.5319 59.6145 29.5394 59.4528 29.5142C59.2912 29.489 59.1362 29.4317 58.9972 29.3455C58.8581 29.2593 58.7378 29.146 58.6433 29.0125L53.7985 22.3775C53.6822 22.2478 53.5945 22.095 53.5414 21.9291C53.4882 21.7632 53.4707 21.5879 53.4901 21.4147C53.5094 21.2416 53.5652 21.0744 53.6536 20.9243C53.7421 20.7742 53.8613 20.6445 54.0034 20.5437C54.1455 20.443 54.3074 20.3733 54.4783 20.3395C54.6492 20.3056 54.8253 20.3083 54.9952 20.3473C55.165 20.3863 55.3246 20.4607 55.4636 20.5658C55.6027 20.6708 55.7179 20.8041 55.8018 20.9568V20.9141Z" fill="#1062AA"/>
<path d="M54.1521 27.6484L55.4024 29.3533C55.523 29.6179 55.5476 29.9163 55.472 30.1971C55.3964 30.4779 55.2252 30.7235 54.988 30.8917C54.7508 31.06 54.4624 31.1402 54.1724 31.1188C53.8824 31.0973 53.6089 30.9754 53.3991 30.774L52.1488 29.0549C52.0028 28.789 51.9596 28.4787 52.0275 28.183C52.0954 27.8873 52.2696 27.627 52.5171 27.4515C52.7646 27.276 53.0679 27.1976 53.3694 27.2313C53.6709 27.265 53.9495 27.4084 54.1521 27.6342V27.6484Z" fill="#1062AA"/>
</svg>
